<?xml version="1.0" encoding="utf-8"?>
<!DOCTYPE svg PUBLIC "-//W3C//DTD SVG 1.1//EN" "http://www.w3.org/Graphics/SVG/1.1/DTD/svg11.dtd">
<svg version="1.1" id="Ebene_1" xmlns="http://www.w3.org/2000/svg" xmlns:xlink="http://www.w3.org/1999/xlink" x="0px" y="0px"
	 width="83px" height="95px" viewBox="0 0 83 95" enable-background="new 0 0 83 95" xml:space="preserve">
<g>
	<path d="M73.106,52.361V0H59.282L58.88,0.77L36.553,41.99L14.226,0.77L13.823,0H0v74.846h11.909V19.606l23.073,42.538h26.235
		v12.721h11.89V62.145H83v-9.764L73.106,52.361L73.106,52.361z M43.424,52.361l17.793-32.774v32.774H43.424L43.424,52.361z"/>
	<path d="M0.101,94.837h2.398v-8.001l2.458,6.807h1.733l2.458-6.807v8.001h2.398V81.894h-2.68l-3.043,8.082L2.78,81.894h-2.68
		V94.837L0.101,94.837z M21.017,81.752c-3.264,0-6.065,2.127-6.065,6.623c0,4.497,2.821,6.625,6.065,6.625
		c3.265,0,6.065-2.128,6.065-6.625C27.103,83.879,24.281,81.752,21.017,81.752L21.017,81.752z M21.017,83.96
		c1.935,0,3.647,1.337,3.647,4.396c0,3.079-1.713,4.396-3.647,4.396c-1.934,0-3.647-1.337-3.647-4.396S19.083,83.96,21.017,83.96
		L21.017,83.96z M34.377,94.837c3.042,0,6.005-1.943,6.005-6.481c0-4.537-2.963-6.481-6.005-6.481h-4.03v12.943L34.377,94.837
		L34.377,94.837z M32.744,92.629v-8.507h0.887c2.056,0,4.332,0.81,4.332,4.253c0,3.444-2.257,4.254-4.332,4.254H32.744
		L32.744,92.629z M43.646,81.894v12.943h8.142v-2.228h-5.764v-3.565h4.474v-2.229h-4.474v-2.714h5.582v-2.228h-7.96V81.894z
		 M55.091,81.894v12.943h7.859v-2.228h-5.461V81.874h-2.398V81.894z M72.965,84.102c-0.705-1.499-2.015-2.35-3.728-2.35
		c-2.016,0-3.507,1.562-3.507,3.524c0,4.112,5.4,3.688,5.4,5.834c0,1.175-0.685,1.682-1.672,1.682c-1.391,0-2.176-1.235-2.56-2.634
		l-1.935,1.216C65.368,93.358,67.061,95,69.398,95c2.458,0,4.131-1.499,4.131-4.032c0-3.848-5.501-3.544-5.501-5.813
		c0-0.688,0.523-1.174,1.229-1.174c0.745,0,1.289,0.404,1.793,1.377L72.965,84.102L72.965,84.102z"/>
</g>
</svg>
